<?xml version="1.0" encoding="utf-8"?>
<!-- Generator: Adobe Illustrator 21.1.0, SVG Export Plug-In . SVG Version: 6.00 Build 0)  -->
<svg version="1.1" id="Ebene_1" xmlns="http://www.w3.org/2000/svg" xmlns:xlink="http://www.w3.org/1999/xlink" x="0px" y="0px"
	 viewBox="0 0 88.744 25.375" style="enable-background:new 0 0 88.744 25.375;" xml:space="preserve">
<style type="text/css">
	.st0{fill-rule:evenodd;clip-rule:evenodd;fill:#FFFFFF;}
</style>
<g>
	<path class="st0" d="M33.11,11.275c-1.625,0-2.634,1.206-2.634,3.298c0,1.92,0.886,3.397,2.608,3.397
		c1.65,0,2.733-1.329,2.733-3.446C35.817,12.284,34.611,11.275,33.11,11.275z"/>
	<path class="st0" d="M76.639,16.863c0,0.713,0.345,1.28,1.305,1.28c1.131,0,2.337-0.813,2.412-2.659
		c-0.517-0.074-1.083-0.148-1.6-0.148C77.623,15.336,76.639,15.656,76.639,16.863z"/>
	<path class="st0" d="M0,0v25.375h88.744V0H0z M25.82,20.161h-4.653v-6.252c0-1.92-0.639-2.659-1.895-2.659
		c-1.526,0-2.142,1.083-2.142,2.634v3.865h1.478v2.412h-4.653v-6.252c0-1.92-0.64-2.659-1.895-2.659
		c-1.527,0-2.142,1.083-2.142,2.634v3.865h2.117v2.412H5.266v-2.412h1.476v-6.277H5.266V9.06h4.652v1.673
		c0.664-1.181,1.821-1.895,3.372-1.895c1.601,0,3.077,0.763,3.619,2.388c0.616-1.477,1.871-2.388,3.619-2.388
		c1.994,0,3.815,1.206,3.815,3.84v5.071h1.477V20.161z M32.987,20.407c-3.422,0-5.786-2.092-5.786-5.637
		c0-3.249,1.97-5.932,5.957-5.932c3.988,0,5.933,2.683,5.933,5.785C39.091,18.167,36.531,20.407,32.987,20.407z M50.889,20.161
		h-9.698l-0.321-1.674l6.105-7.015h-3.471l-0.492,1.723l-2.289-0.246l0.393-3.889h9.748l0.247,1.673l-6.155,7.016h3.595l0.517-1.723
		l2.51,0.246L50.889,20.161z M57.227,20.161h-3.323v-3.988h3.323V20.161z M57.227,13.048h-3.323V9.06h3.323V13.048z M59.305,20.161
		l4.8-16.935h3.126l-4.8,16.935H59.305z M65.754,20.161l4.8-16.935h3.126l-4.8,16.935H65.754z M82.792,20.407
		c-1.476,0-2.289-0.861-2.436-2.215c-0.641,1.132-1.773,2.215-3.57,2.215c-1.599,0-3.421-0.861-3.421-3.175
		c0-2.733,2.633-3.372,5.169-3.372c0.616,0,1.255,0.024,1.822,0.098v-0.369c0-1.133-0.025-2.486-1.822-2.486
		c-0.665,0-1.181,0.049-1.699,0.32l-0.358,1.249l-2.535-0.271l0.432-2.554c1.945-0.787,2.929-1.009,4.751-1.009
		c2.388,0,4.406,1.231,4.406,3.766v4.825c0,0.64,0.247,0.861,0.763,0.861c0.148,0,0.295-0.024,0.468-0.073l0.024,1.673
		C84.196,20.21,83.482,20.407,82.792,20.407z"/>
</g>
</svg>
