<?xml version="1.0" encoding="utf-8"?>
<!-- Generator: Adobe Illustrator 21.1.0, SVG Export Plug-In . SVG Version: 6.00 Build 0)  -->
<svg version="1.1" id="Ebene_1" xmlns="http://www.w3.org/2000/svg" xmlns:xlink="http://www.w3.org/1999/xlink" x="0px" y="0px"
	 viewBox="0 0 162.599 25.375" style="enable-background:new 0 0 162.599 25.375;" xml:space="preserve">
<style type="text/css">
	.st0{fill-rule:evenodd;clip-rule:evenodd;}
	.st1{fill:#231F20;}
</style>
<g>
	<path class="st0" d="M33.11,11.275c-1.625,0-2.634,1.206-2.634,3.298c0,1.92,0.886,3.397,2.608,3.397
		c1.65,0,2.733-1.329,2.733-3.446C35.817,12.284,34.611,11.275,33.11,11.275z"/>
	<path class="st0" d="M76.639,16.863c0,0.713,0.345,1.28,1.305,1.28c1.131,0,2.337-0.813,2.412-2.659
		c-0.517-0.074-1.083-0.148-1.6-0.148C77.623,15.336,76.639,15.656,76.639,16.863z"/>
	<path class="st0" d="M0,0v25.375h88.744V0H0z M25.82,20.161h-4.653v-6.252c0-1.92-0.639-2.659-1.895-2.659
		c-1.526,0-2.142,1.083-2.142,2.634v3.865h1.478v2.412h-4.653v-6.252c0-1.92-0.64-2.659-1.895-2.659
		c-1.527,0-2.142,1.083-2.142,2.634v3.865h2.117v2.412H5.266v-2.412h1.476v-6.277H5.266V9.06h4.652v1.673
		c0.664-1.181,1.821-1.895,3.372-1.895c1.601,0,3.077,0.763,3.619,2.388c0.616-1.477,1.871-2.388,3.619-2.388
		c1.994,0,3.815,1.206,3.815,3.84v5.071h1.477V20.161z M32.987,20.407c-3.422,0-5.786-2.092-5.786-5.637
		c0-3.249,1.97-5.932,5.957-5.932c3.988,0,5.933,2.683,5.933,5.785C39.091,18.167,36.531,20.407,32.987,20.407z M50.889,20.161
		h-9.698l-0.321-1.674l6.105-7.015h-3.471l-0.492,1.723l-2.289-0.246l0.393-3.889h9.748l0.247,1.673l-6.155,7.016h3.595l0.517-1.723
		l2.51,0.246L50.889,20.161z M57.227,20.161h-3.323v-3.988h3.323V20.161z M57.227,13.048h-3.323V9.06h3.323V13.048z M59.305,20.161
		l4.8-16.935h3.126l-4.8,16.935H59.305z M65.754,20.161l4.8-16.935h3.126l-4.8,16.935H65.754z M82.792,20.407
		c-1.476,0-2.289-0.861-2.436-2.215c-0.641,1.132-1.773,2.215-3.57,2.215c-1.599,0-3.421-0.861-3.421-3.175
		c0-2.733,2.633-3.372,5.169-3.372c0.616,0,1.255,0.024,1.822,0.098v-0.369c0-1.133-0.025-2.486-1.822-2.486
		c-0.665,0-1.181,0.049-1.699,0.32l-0.358,1.249l-2.535-0.271l0.432-2.554c1.945-0.787,2.929-1.009,4.751-1.009
		c2.388,0,4.406,1.231,4.406,3.766v4.825c0,0.64,0.247,0.861,0.763,0.861c0.148,0,0.295-0.024,0.468-0.073l0.024,1.673
		C84.196,20.21,83.482,20.407,82.792,20.407z"/>
</g>
<g>
	<path class="st1" d="M113.256,15.281c0,1.248-0.436,2.308-1.308,3.18c-0.872,0.873-2.18,1.308-3.924,1.308h-7.56v-1.896h1.896
		V6.065h-1.896V4.169h7.464c1.536,0,2.704,0.34,3.504,1.02c0.8,0.68,1.2,1.581,1.2,2.7c0,0.832-0.248,1.556-0.744,2.172
		c-0.496,0.616-1.152,1.004-1.968,1.164v0.096c1.12,0.16,1.956,0.608,2.508,1.344C112.98,13.401,113.256,14.273,113.256,15.281z
		 M110.304,8.417c0-0.896-0.256-1.512-0.768-1.848c-0.512-0.336-1.2-0.504-2.064-0.504h-2.928v4.8h2.808
		C109.32,10.865,110.304,10.049,110.304,8.417z M110.904,15.185c0-1.712-0.96-2.568-2.88-2.568h-3.48v5.256h3.024
		c1.04,0,1.856-0.212,2.448-0.636C110.608,16.813,110.904,16.129,110.904,15.185z"/>
	<path class="st1" d="M124.728,16.601c-0.112,0.928-0.568,1.728-1.368,2.4c-0.8,0.672-1.888,1.008-3.264,1.008
		c-1.552,0-2.808-0.464-3.768-1.392c-0.96-0.928-1.44-2.272-1.44-4.032c0-1.664,0.448-3.04,1.344-4.128
		c0.896-1.088,2.136-1.632,3.72-1.632c1.472,0,2.616,0.456,3.432,1.368c0.816,0.912,1.232,2.016,1.248,3.312
		c0,0.432-0.048,0.888-0.144,1.368h-7.392c0.096,2.272,1.144,3.408,3.144,3.408c0.832,0,1.46-0.2,1.884-0.6s0.708-0.88,0.852-1.44
		L124.728,16.601z M122.448,13.457c0.063-0.704-0.108-1.38-0.516-2.028c-0.408-0.648-1.084-0.972-2.028-0.972
		c-0.88,0-1.54,0.292-1.98,0.876c-0.44,0.584-0.708,1.292-0.804,2.124H122.448z"/>
	<path class="st1" d="M132.504,8.873c0.751,0,1.392,0.192,1.92,0.576l0.432,3l-1.656,0.192l-0.408-1.848
		c-0.272-0.112-0.552-0.168-0.84-0.168c-0.544,0-1,0.228-1.368,0.684s-0.552,1.052-0.552,1.788v5.04h2.304v1.632h-6.144v-1.632
		h1.728v-7.44h-1.8V9.041h3.768v1.968c0.208-0.608,0.532-1.116,0.972-1.524C131.299,9.077,131.848,8.873,132.504,8.873z"/>
	<path class="st1" d="M141.6,19.769h-5.568v-1.632h1.728V4.913h-1.8V3.257h3.912v14.88h1.728V19.769z"/>
	<path class="st1" d="M148.463,19.769h-5.592v-1.632h1.752v-7.44H142.8V9.041h3.936v9.096h1.728V19.769z M144.479,6.521V4.049h2.184
		v2.472H144.479z"/>
	<path class="st1" d="M162.599,19.769h-5.568v-1.632h1.728v-4.632c0-1.088-0.208-1.86-0.624-2.316s-0.968-0.684-1.656-0.684
		c-0.896,0-1.608,0.296-2.136,0.888c-0.528,0.592-0.808,1.28-0.84,2.064v4.68h1.728v1.632h-5.568v-1.632h1.728v-7.44h-1.8V9.041
		h3.912v1.824c0.752-1.36,1.968-2.04,3.648-2.04c1.04,0,1.92,0.32,2.64,0.96c0.72,0.64,1.08,1.64,1.08,3v5.352h1.728V19.769z"/>
</g>
</svg>
