<?xml version="1.0" encoding="utf-8"?>
<!-- Generator: Adobe Illustrator 21.0.2, SVG Export Plug-In . SVG Version: 6.00 Build 0)  -->
<svg version="1.1" id="Ebene_1" xmlns="http://www.w3.org/2000/svg" xmlns:xlink="http://www.w3.org/1999/xlink" x="0px" y="0px"
	 viewBox="0 0 376 50" style="enable-background:new 0 0 376 50;" xml:space="preserve">
<style type="text/css">
	.st0{fill:#009EE0;}
</style>
<g>
	<path class="st0" d="M0,0.79586h19.76435c8.07919,0,13.27292,4.70354,13.27292,12.30103
		c0,6.07839-4.11174,10.20294-8.43969,11.07044c5.12134,0.79586,9.37738,6.15101,9.37738,11.86728
		c0,8.03125-5.19373,13.02428-13.77772,13.02428H0V0.79586z M19.25955,22.43136c6.20332,0,9.44928-3.90768,9.44928-8.90071
		c0-4.92041-3.24596-8.97235-9.44928-8.97235H4.11174v17.87305H19.25955z M19.54815,45.29646
		c6.34762,0,10.09886-3.6908,10.09886-9.55133c0-4.92041-3.39025-9.55133-10.09886-9.55133H4.11174v19.10267H19.54815z"/>
	<path class="st0" d="M74.43791,37.1926H48.83025l-4.83274,11.8663h-4.61654L59.07293,0.79586h5.12232L83.88719,49.0589h-4.61654
		L74.43791,37.1926z M50.12844,33.42918h23.01128L61.59789,4.8478L50.12844,33.42918z"/>
	<path class="st0" d="M89.72562,39.14545c3.10215,3.61818,8.15109,7.01949,15.004,7.01949
		c9.88168,0,12.69524-5.4994,12.69524-9.62395c0-6.80163-6.41953-8.68285-13.20004-10.49243
		c-7.57487-2.09809-15.65358-4.26881-15.65358-13.16854C88.57124,4.99303,95.64034,0,104.36863,0
		c7.21291,0,12.55143,2.53283,16.30219,6.80163l-2.74117,3.03919c-3.46216-4.19717-8.36729-6.07839-13.77722-6.07839
		c-6.4205,0-11.25324,3.6908-11.25324,8.90071c0,5.71628,5.98711,7.38062,12.55143,9.1166
		c7.7901,2.24333,16.30219,4.70354,16.30219,14.47175c0,6.22264-4.11174,13.67588-17.09558,13.67588
		c-7.93489,0-13.92201-3.18443-17.60037-7.67011L89.72562,39.14545z"/>
	<path class="st0" d="M131.63057,0.79586h30.5128V4.5583h-26.40106v17.87305h25.89528v3.76244h-25.89528v19.10267h26.40106v3.76244
		h-30.5128V0.79586z"/>
	<path class="st0" d="M190.99014,0.79586h4.11174v44.5006h23.2989v3.76244h-27.41064V0.79586z"/>
	<path class="st0" d="M246.24284,0c14.06584,0,23.37032,10.85357,23.37032,24.9632c0,14.11061-9.30447,24.96418-23.37032,24.96418
		c-14.13821,0-23.37129-10.85357-23.37129-24.96418C222.87155,10.85357,232.10463,0,246.24284,0z M246.24284,3.76244
		c-11.68564,0-19.04335,8.90071-19.04335,21.20076c0,12.15678,7.35771,21.20174,19.04335,21.20174
		c11.54088,0,19.04237-9.04496,19.04237-21.20174C265.28522,12.66315,257.78372,3.76244,246.24284,3.76244z"/>
	<path class="st0" d="M302.35645,0c7.93491,0,13.70483,3.18345,18.10519,8.2491l-3.1012,2.24333
		c-3.39075-4.05291-8.87305-6.72999-15.004-6.72999c-11.32465,0-20.05292,8.61121-20.05292,21.20076
		c0,12.44627,8.72827,21.27338,20.05292,21.27338c6.41953,0,11.46945-3.18345,14.13821-5.86053V28.79826h-18.17755v-3.68982
		h22.28931v16.85934C316.34988,46.74295,309.93036,50,302.35645,50c-13.48959,0-24.38089-10.13032-24.38089-25.0368
		C277.97556,10.0577,288.86685,0,302.35645,0z"/>
	<path class="st0" d="M352.62967,0C366.6955,0,376,10.85357,376,24.9632c0,14.11061-9.3045,24.96418-23.37033,24.96418
		c-14.13821,0-23.37128-10.85357-23.37128-24.96418C329.25839,10.85357,338.49146,0,352.62967,0z M352.62967,3.76244
		c-11.68564,0-19.04333,8.90071-19.04333,21.20076c0,12.15678,7.3577,21.20174,19.04333,21.20174
		c11.54086,0,19.04239-9.04496,19.04239-21.20174C371.67206,12.66315,364.17053,3.76244,352.62967,3.76244z"/>
</g>
</svg>
