<?xml version="1.0" encoding="utf-8"?>
<!-- Generator: Adobe Illustrator 21.1.0, SVG Export Plug-In . SVG Version: 6.00 Build 0)  -->
<svg version="1.1" id="Layer_1" xmlns="http://www.w3.org/2000/svg" xmlns:xlink="http://www.w3.org/1999/xlink" x="0px" y="0px"
	 viewBox="0 0 357 129" style="enable-background:new 0 0 357 129;" xml:space="preserve">
<style type="text/css">
	.st0{fill:#ED1C40;}
</style>
<path class="st0" d="M327.078,71.369c-2.114,0.867-3.035,0.337-2.913-3.154c0.026-0.751,3.42-18.262,9.913-21.436
	c1.84-0.899,3.704-0.859,4.996,0.578c2.445,2.721,1.802,6.912-0.035,10.734C336.373,63.637,329.982,70.179,327.078,71.369
	 M174.215,56.023c-0.398,3.503-1.883,5.483-2.431,6.217c-0.968,1.299-1.356,1.809-2.285,0.866
	c-0.751-0.761-3.566-6.485-3.974-10.258c-0.219-2.032,0.343-4.929,2.048-5.611c1.794-0.716,3.612-0.39,4.887,1.276
	C174.469,51.138,174.497,53.536,174.215,56.023 M132.09,54.458c-0.214,3.04-0.998,4.969-2.61,7.768
	c-1.005,1.746-2.047,0.44-2.651-0.423c-0.867-1.239-5.312-12.024-1.919-14.25c0.954-0.626,2.85-0.987,4.22-0.22
	c1.37,0.767,2.198,1.882,2.576,3.125C132.09,51.719,132.234,52.424,132.09,54.458 M356.981,75.337
	c-0.043-0.475-0.157-0.966-0.352-1.471c-1.192-3.087-6.611-0.207-8.459,0.566c-3.332,1.394-7.14,3.232-10.827,2.178
	c-1.022-0.291-0.722-1.16,0-1.601c0.359-0.219,9.831-5.568,12.616-17.418c4.457-18.956-9.227-24.228-14.624-24.868
	c-5.49-0.651-11.613,0.196-14.194,1.232c-7.311,2.932-9.221,9.45-9.725,13.356c-0.693,5.37-0.771,14.742-1.438,18.96
	c-0.439,2.776-2.507,6.992-6.591,6.591c-7.873-0.773-11.489-3.791-11.239-8.742c0.176-3.48,0.126-4.175,1.224-11.896
	c0.941-6.611,1.539-8.192,1.539-9.703c0-4.332-5.835-5.206-7.784-3.258c-1.507,1.507-1.884,4.582-2.26,9.772
	c-0.354,4.877-1.104,11.224-2.072,15.094c-1.506,6.026-2.108,6.467-3.483,8.192c-2.856,3.583-8.129,2.469-10.703,0.027
	c-1.515-1.437-1.719-2.714-1.426-6.937c0.294-4.224,0.987-11.58,1.955-19.252c0.848-6.712,0.264-7.722-1.8-9.605
	c-1.92-1.751-9.28-1.49-12.687-1.49c-5.273,0-4.959,2.504-5.305,11.046c-0.152,3.73-0.326,9.388-0.698,13.769
	c-0.607,7.126-14.236,12.495-20.505,12.172c-6.497-0.334-7.122-12.438-7.533-15.252c-0.41-2.815-0.578-27.111,0.126-27.932
	c0.497-0.582,4.408-1.022,8.865-1.892c9.866-1.928,11.283-3.192,11.299-6.278c0.007-1.511-0.09-3.628-1.772-4.196
	c-0.984-0.332-3.536-0.712-6.926-1.111c-9.77-1.148-11.146-0.795-11.201-2.033c-0.094-2.165,0.112-6.33-0.062-7.972
	c-0.427-4.031-5.161-5.388-10.498-5.036c-1.054,0.069-2.509,0.41-2.625,1.817c-0.118,1.408-0.108,2.495-0.278,4.883
	c-0.377,5.3-0.484,5.873-2.542,5.865c-1.835-0.008-17.09-1.356-20.023-0.418c-2.932,0.938-2.815,2.932-3.05,3.93
	c-0.234,0.997,0.294,6.978,0.586,9.56c0.294,2.581,0.86,6.091,1.211,6.619c0.352,0.528,1.455,2.024,4.516,1.643
	c10.405-1.301,17.346-2.871,18.754-3.223c1.407-0.352,1.569-0.527,1.583,0.586c0.008,0.632,0.269,13.316,0.314,17.08
	c0.077,6.442,1.167,25.107-16.226,27.999c-7.237,1.204-14.02-0.9-17.104-4.294c-1.75-1.926-0.891-2.177-0.118-3.432
	c1.17-1.901,10.945-13.366,2.754-25.254c-4.831-7.013-16.413-7.57-20.619-5.749c-3.258,1.409-5.894,5.781-6.403,11.109
	c-1.569,16.445,7.857,26.615,8.223,27.242c0.44,0.753-1.208,3.175-6.967,4.017c-7.721,1.13-19.578-8.168-19.27-9.378
	c0.148-0.58,5.398-9.165,5.524-17.457c0.043-2.823-0.89-6.541-2.825-10.295c-1.935-3.753-8.029-9.548-14.625-8.277
	c-15.521,2.989-13.752,18.294-12.674,22.471c2.229,8.639,7.457,16.264,8.312,17.789c1.161,2.072-32.84,15.541-34.16,2.932
	c-1.307-12.497,17.283-39.448,15.818-49.908c-1.318-9.416-7.664-11.389-13.181-11.486c-5.364-0.096-6.78,0.759-8.594,1.812
	c-1.047,0.607-2.548,1.809-4.634-0.176c-1.387-1.319-2.303-2.243-3.769-3.416c-0.746-0.596-1.935-1.349-3.93-1.641
	c-1.994-0.294-4.575,0-6.216,0.703c-1.643,0.704-2.933,1.936-4.282,3.109c-1.349,1.173-4.771,5.005-7.961,3.592
	c-1.382-0.613-6.07-2.953-9.449-4.415c-6.528-2.825-15.942,1.751-19.332,7.777C12.139,33.03,2.18,68.254,0.673,72.899
	C-2.71,83.331,4.957,91.834,15.298,91.344c4.37-0.206,7.281-1.804,10.042-6.826c1.595-2.9,16.587-42.061,17.701-43.938
	c0.809-1.362,3.506-3.16,5.794-1.986c2.287,1.173,2.743,3.618,2.405,5.923c-0.547,3.727-11.12,27.615-11.526,30.32
	c-0.691,4.597,1.494,7.152,6.264,7.403c3.27,0.171,6.529-1.005,9.115-5.882c1.446-2.727,18.12-36.123,19.595-38.352
	c1.621-2.447,2.926-3.252,4.576-3.166c1.282,0.065,3.332,0.394,2.819,4.234c-0.502,3.766-13.908,28.272-15.315,34.271
	c-2.134,9.102,3.704,21.341,19.333,21.906c7.769,0.281,25.749-3.106,35.881-10.783c3.677-2.787,2.704-3.027,4.995-0.998
	c3.295,2.919,9.416,7.03,15.441,7.03c13.687,0,23.678-8.543,24.134-8.849c0.149-0.1,0.345-0.077,0.465,0.054
	c0.83,0.898,9.316,5.625,15.259,5.82c14.154,0.465,22.536-7.389,25.703-11.083c2.391-2.789,4.146-5.311,4.864-6.38
	c0.183-0.272,0.571-0.301,0.792-0.058c0.847,0.929,7.229,12.658,19.909,11.04c7.072-0.903,17.592-6.868,18.328-7.672
	c0.165-0.181,0.462-0.122,0.545,0.108c0.37,1.022,1.989,6.777,8.474,11.354c5.316,3.753,15.546,4.506,20.086,2.009
	c3.762-2.068,5.273-3.39,7.909-6.026c1.132-1.132,2.856-2.281,5.964-1.621c3.473,0.736,12.659,2.361,13.243,2.639
	c0.659,0.314,0.762,1.514,0.565,2.762c-0.313,1.975-1.057,8.884-1.82,15.335c-0.762,6.452-3.198,27.978,2.573,28.776
	c3.489,0.483,6.517-2.819,7.317-6.041c2.007-8.083,2.374-17.182,3.696-24.987c1.572-9.29,2.201-11.896,2.765-12.93
	c0.469-0.861,0.471-0.659,6.973-0.107c4.506,0.383,8.16,1.011,13.588,0.253C348.244,84.267,357.475,80.862,356.981,75.337"/>
</svg>
