<?xml version="1.0" encoding="utf-8"?>
<!-- Generator: Adobe Illustrator 21.1.0, SVG Export Plug-In . SVG Version: 6.00 Build 0)  -->
<svg version="1.1" id="Ebene_1" xmlns="http://www.w3.org/2000/svg" xmlns:xlink="http://www.w3.org/1999/xlink" x="0px" y="0px"
	 viewBox="0 0 88.7 25.4" style="enable-background:new 0 0 88.7 25.4;" xml:space="preserve">
<g>
	<path d="M33.1,11.3c-1.6,0-2.6,1.2-2.6,3.3c0,1.9,0.9,3.4,2.6,3.4c1.7,0,2.7-1.3,2.7-3.4C35.8,12.3,34.6,11.3,33.1,11.3z"/>
	<path d="M76.6,16.9c0,0.7,0.3,1.3,1.3,1.3c1.1,0,2.3-0.8,2.4-2.7c-0.5-0.1-1.1-0.1-1.6-0.1C77.6,15.3,76.6,15.7,76.6,16.9z"/>
	<path d="M0,0v25.4h88.7V0H0z M25.8,20.2h-4.7v-6.3c0-1.9-0.6-2.7-1.9-2.7c-1.5,0-2.1,1.1-2.1,2.6v3.9h1.5v2.4H14v-6.3
		c0-1.9-0.6-2.7-1.9-2.7c-1.5,0-2.1,1.1-2.1,2.6v3.9H12v2.4H5.3v-2.4h1.5v-6.3H5.3V9.1h4.7v1.7c0.7-1.2,1.8-1.9,3.4-1.9
		c1.6,0,3.1,0.8,3.6,2.4c0.6-1.5,1.9-2.4,3.6-2.4c2,0,3.8,1.2,3.8,3.8v5.1h1.5C25.8,17.7,25.8,20.2,25.8,20.2z M33,20.4
		c-3.4,0-5.8-2.1-5.8-5.6c0-3.2,2-5.9,6-5.9c4,0,5.9,2.7,5.9,5.8C39.1,18.2,36.5,20.4,33,20.4z M50.9,20.2h-9.7l-0.3-1.7l6.1-7h-3.5
		L43,13.2l-2.3-0.2l0.4-3.9h9.7l0.2,1.7l-6.2,7h3.6l0.5-1.7l2.5,0.2L50.9,20.2z M57.2,20.2h-3.3v-4h3.3
		C57.2,16.2,57.2,20.2,57.2,20.2z M57.2,13h-3.3v-4h3.3C57.2,9.1,57.2,13,57.2,13z M59.3,20.2l4.8-16.9h3.1l-4.8,16.9H59.3z
		 M65.8,20.2l4.8-16.9h3.1l-4.8,16.9H65.8z M82.8,20.4c-1.5,0-2.3-0.9-2.4-2.2c-0.6,1.1-1.8,2.2-3.6,2.2c-1.6,0-3.4-0.9-3.4-3.2
		c0-2.7,2.6-3.4,5.2-3.4c0.6,0,1.3,0,1.8,0.1v-0.4c0-1.1,0-2.5-1.8-2.5c-0.7,0-1.2,0-1.7,0.3l-0.4,1.2l-2.5-0.3l0.4-2.6
		c1.9-0.8,2.9-1,4.8-1c2.4,0,4.4,1.2,4.4,3.8v4.8c0,0.6,0.2,0.9,0.8,0.9c0.1,0,0.3,0,0.5-0.1l0,1.7C84.2,20.2,83.5,20.4,82.8,20.4z"
		/>
</g>
</svg>
